<svg width="316" height="342" viewBox="0 0 316 342" fill="none" xmlns="http://www.w3.org/2000/svg">
<rect width="316" height="342" fill="#434955"/>
<path d="M62.6307 322.05L62.494 300.755L52.1087 318.265H45.003L34.6177 301.507V322.05H19.9279V273.6H33.1829L48.7608 300.208L63.9288 273.6H77.1837L77.3204 322.05H62.6307Z" fill="white"/>
<path d="M96.5493 287.212H82.5428V273.6H126.68V287.212H112.674V322.05H96.5493V287.212Z" fill="white"/>
<path d="M130.868 273.6H146.993V310.057H168.583V322.05H130.868V273.6Z" fill="white"/>
<path d="M173.037 273.6H189.162V310.057H210.752V322.05H173.037V273.6Z" fill="white"/>
<path d="M233.039 323.669C229.076 323.669 225.204 323.236 221.424 322.369C217.689 321.457 214.614 320.249 212.2 318.744L217.393 306.979C219.67 308.302 222.221 309.373 225.045 310.194C227.869 310.969 230.579 311.357 233.176 311.357C235.407 311.357 237.002 311.152 237.958 310.741C238.915 310.285 239.393 309.624 239.393 308.758C239.393 307.754 238.755 307.002 237.48 306.5C236.25 305.999 234.2 305.452 231.331 304.859C227.641 304.084 224.567 303.263 222.107 302.396C219.647 301.484 217.506 300.025 215.685 298.019C213.863 295.967 212.952 293.208 212.952 289.742C212.952 286.733 213.794 283.997 215.48 281.534C217.165 279.072 219.67 277.134 222.995 275.72C226.366 274.307 230.443 273.6 235.225 273.6C238.505 273.6 241.716 273.965 244.859 274.694C248.047 275.378 250.849 276.404 253.263 277.772L248.412 289.469C243.72 287.098 239.279 285.912 235.089 285.912C230.944 285.912 228.871 286.915 228.871 288.922C228.871 289.879 229.486 290.609 230.716 291.11C231.946 291.566 233.973 292.068 236.797 292.615C240.441 293.299 243.515 294.097 246.021 295.009C248.526 295.876 250.689 297.312 252.511 299.318C254.379 301.325 255.313 304.061 255.313 307.526C255.313 310.536 254.47 313.272 252.785 315.734C251.099 318.151 248.571 320.089 245.201 321.548C241.876 322.962 237.822 323.669 233.039 323.669Z" fill="white"/>
<path d="M269.829 287.212H255.822V273.6H296.072V287.212H285.953V322.05H269.829V287.212Z" fill="white"/>
<path d="M224.664 253.65L223.999 147.15L173.515 253.65H138.974L88.4895 150.822V253.65H19.9279V19.95H82.5586L157.241 144.479L230.974 19.95H296.072V253.65H224.664Z" fill="white"/>
<path d="M156.577 99.75L96.7927 -5.00679e-06L216.36 -5.00679e-06L156.577 99.75Z" fill="white"/>
</svg>
